<mxfile host="app.diagrams.net" modified="2024-04-30T07:12:02.949Z" agent="Mozilla/5.0 (Windows NT 10.0; Win64; x64) AppleWebKit/537.36 (KHTML, like Gecko) Chrome/124.0.0.0 Safari/537.36" etag="-I63jkl0OwsgI9MkQbP1" version="24.3.1" type="github">
  <diagram name="Page-1" id="DbE8vXcZzuNqbDyXq-6h">
    <mxGraphModel dx="867" dy="438" grid="1" gridSize="8" guides="1" tooltips="1" connect="1" arrows="1" fold="1" page="1" pageScale="1" pageWidth="850" pageHeight="1100" math="0" shadow="0">
      <root>
        <mxCell id="0" />
        <mxCell id="1" parent="0" />
      </root>
    </mxGraphModel>
  </diagram>
</mxfile>
